<svg xmlns="http://www.w3.org/2000/svg" viewBox="0 0 400 400" role="img" aria-label="Monkey D. Luffy portrait">
  <defs>
    <linearGradient id="bg" x1="0" x2="1" y1="0" y2="1">
      <stop offset="0%" stop-color="#f7d9a0"/>
      <stop offset="100%" stop-color="#d79a3d"/>
    </linearGradient>
    <linearGradient id="rim" x1="0" x2="0" y1="0" y2="1">
      <stop offset="0%" stop-color="#f9eed8"/>
      <stop offset="100%" stop-color="#9d6423"/>
    </linearGradient>
  </defs>
  <rect width="400" height="400" fill="url(#bg)"/>
  <circle cx="200" cy="190" r="132" fill="#fff4dd" opacity="0.28"/>
  <circle cx="200" cy="195" r="110" fill="#d44a43" opacity="0.16"/>
  <circle cx="200" cy="170" r="74" fill="#2c1810" opacity="0.88"/>
  <path d="M118 152c24-35 61-56 82-56s58 18 82 56c-22-9-52-16-82-16s-60 7-82 16z" fill="#f6d37f"/>
  <path d="M132 165c18-19 40-29 68-29s50 10 68 29c-15 10-41 16-68 16s-53-6-68-16z" fill="#1a1a1a" opacity="0.92"/>
  <circle cx="170" cy="177" r="8" fill="#fff"/>
  <circle cx="230" cy="177" r="8" fill="#fff"/>
  <circle cx="170" cy="179" r="3" fill="#2c1810"/>
  <circle cx="230" cy="179" r="3" fill="#2c1810"/>
  <path d="M178 208c10 8 34 8 44 0" fill="none" stroke="#2c1810" stroke-width="6" stroke-linecap="round"/>
  <path d="M156 248c19 18 33 27 44 27s25-9 44-27" fill="none" stroke="#2c1810" stroke-width="11" stroke-linecap="round"/>
  <circle cx="200" cy="200" r="148" fill="none" stroke="url(#rim)" stroke-width="10"/>
  <circle cx="200" cy="200" r="166" fill="none" stroke="#2c1810" stroke-width="4" opacity="0.65"/>
  <text x="200" y="338" text-anchor="middle" font-family="Cinzel, serif" font-size="32" fill="#2c1810" letter-spacing="4">LUFFY</text>
  <text x="200" y="366" text-anchor="middle" font-family="Crimson Text, serif" font-size="18" fill="#5c3d2e">Captain · Straw Hat</text>
</svg>