<svg xmlns="http://www.w3.org/2000/svg" viewBox="0 0 400 400" role="img" aria-label="Nami portrait">
  <defs>
    <linearGradient id="bg" x1="0" x2="1" y1="0" y2="1">
      <stop offset="0%" stop-color="#ffe4b5"/>
      <stop offset="100%" stop-color="#f39c52"/>
    </linearGradient>
  </defs>
  <rect width="400" height="400" fill="url(#bg)"/>
  <circle cx="200" cy="190" r="132" fill="#fff7e8" opacity="0.22"/>
  <circle cx="200" cy="196" r="110" fill="#8b4a1f" opacity="0.84"/>
  <path d="M124 165c19-36 49-58 76-58s57 22 76 58c-24-9-50-13-76-13s-52 4-76 13z" fill="#f0cc74"/>
  <path d="M144 175c16-16 32-24 56-24s40 8 56 24c-14 9-32 13-56 13s-42-4-56-13z" fill="#f5d58c"/>
  <circle cx="173" cy="181" r="7" fill="#fff"/>
  <circle cx="227" cy="181" r="7" fill="#fff"/>
  <circle cx="173" cy="183" r="3" fill="#8b4a1f"/>
  <circle cx="227" cy="183" r="3" fill="#8b4a1f"/>
  <path d="M182 208c8 5 28 5 36 0" fill="none" stroke="#8b4a1f" stroke-width="6" stroke-linecap="round"/>
  <path d="M150 248c20 15 34 22 50 22s30-7 50-22" fill="none" stroke="#8b4a1f" stroke-width="10" stroke-linecap="round"/>
  <circle cx="200" cy="200" r="148" fill="none" stroke="#f3d9a5" stroke-width="10"/>
  <circle cx="200" cy="200" r="166" fill="none" stroke="#2c1810" stroke-width="4" opacity="0.65"/>
  <text x="200" y="338" text-anchor="middle" font-family="Cinzel, serif" font-size="32" fill="#2c1810" letter-spacing="4">NAMI</text>
  <text x="200" y="366" text-anchor="middle" font-family="Crimson Text, serif" font-size="18" fill="#2c1810">Navigator · Cat Burglar</text>
</svg>